<?xml version="1.0" encoding="UTF-8" standalone="no"?>
<svg
   width="16"
   height="16"
   fill="currentColor"
   class="bi bi-person-vcard-fill"
   viewBox="0 0 16 16"
   version="1.1"
   id="svg1"
   xmlns="http://www.w3.org/2000/svg"
   xmlns:svg="http://www.w3.org/2000/svg">
  <defs
     id="defs1" />
  <path
     d="M0 4a2 2 0 0 1 2-2h12a2 2 0 0 1 2 2v8a2 2 0 0 1-2 2H2a2 2 0 0 1-2-2V4Zm9 1.5a.5.5 0 0 0 .5.5h4a.5.5 0 0 0 0-1h-4a.5.5 0 0 0-.5.5ZM9 8a.5.5 0 0 0 .5.5h4a.5.5 0 0 0 0-1h-4A.5.5 0 0 0 9 8Zm1 2.5a.5.5 0 0 0 .5.5h3a.5.5 0 0 0 0-1h-3a.5.5 0 0 0-.5.5Zm-1 2C9 10.567 7.21 9 5 9c-2.086 0-3.8 1.398-3.984 3.181A1 1 0 0 0 2 13h6.96c.026-.163.04-.33.04-.5ZM7 6a2 2 0 1 0-4 0 2 2 0 0 0 4 0Z"
     id="path1"
     style="fill:#dddddd;fill-opacity:1" />
</svg>
