<?xml version="1.0" encoding="UTF-8" standalone="no"?>
<!-- Created with Inkscape (http://www.inkscape.org/) -->

<svg
   width="27.581917mm"
   height="30.233812mm"
   viewBox="0 0 27.581917 30.233812"
   version="1.1"
   id="svg1"
   xmlns="http://www.w3.org/2000/svg"
   xmlns:svg="http://www.w3.org/2000/svg">
  <defs
     id="defs1" />
  <g
     id="layer1"
     transform="translate(-137.84792,-42.8625)">
    <rect
       style="fill:#848489;fill-opacity:1;stroke:none;stroke-width:1.13585;stroke-linecap:square;stroke-opacity:1"
       id="rect41"
       width="3.1749995"
       height="27.011332"
       x="162.25484"
       y="44.380119"
       ry="0.23638055" />
    <path
       id="path41"
       style="fill:#ffffff;fill-opacity:1;stroke:none;stroke-width:3.43845;stroke-linecap:square;stroke-opacity:1"
       d="m 138.1125,42.8625 c -0.14658,0 -0.26458,0.118004 -0.26458,0.264583 V 72.83173 c 0,0.146578 0.118,0.264583 0.26458,0.264583 h 25.46511 c 0.14658,0 0.26458,-0.118005 0.26458,-0.264583 V 43.127083 c 0,-0.146579 -0.118,-0.264583 -0.26458,-0.264583 z m 8.44031,6.881749 c 1.38555,0 2.49959,1.050462 2.49959,2.510959 0,1.460496 -1.11404,2.510441 -2.49959,2.510441 -1.39269,0 -2.50682,-1.049945 -2.50682,-2.510441 0,-1.460497 1.11413,-2.510959 2.50682,-2.510959 z m 12.88397,0.01394 h 0.0858 l 2.12855,4.94285 h -0.78548 l -0.27853,-0.690397 h -2.22157 l -0.27854,0.690397 h -0.72812 z m -19.39727,0.05064 h 1.22112 c 1.34269,0 2.08566,0.72671 2.08566,1.863451 0,1.129546 -0.75011,1.863452 -2.08566,1.863452 h -0.46406 v 1.165304 h -0.75706 z m 9.9627,0 h 1.2144 c 1.34269,0 2.09238,0.704927 2.09238,1.827278 0,0.755429 -0.33537,1.273322 -0.971,1.55391 l 1.02836,1.511019 h -0.87126 l -0.87127,-1.287777 c -0.1357,0.01439 -0.27151,0.02894 -0.40721,0.02894 h -0.45734 v 1.258838 h -0.75706 z m 3.89279,0 h 3.63492 v 0.669208 h -1.44229 v 4.222999 h -0.75034 V 50.478044 H 153.895 Z m -7.34219,0.618567 c -1.01416,0 -1.73529,0.784582 -1.73529,1.827794 0,1.043212 0.72113,1.827279 1.73529,1.827279 1.01416,0 1.72858,-0.784067 1.72858,-1.827279 0,-1.043212 -0.71442,-1.827794 -1.72858,-1.827794 z m -5.75624,0.05064 v 2.388485 h 0.43564 c 0.95702,0 1.34255,-0.453202 1.34255,-1.194242 0,-0.74104 -0.39267,-1.194243 -1.34255,-1.194243 z m 9.9627,0 v 2.309421 h 0.42892 c 0.96416,0 1.34979,-0.424701 1.34979,-1.151351 0,-0.733845 -0.39991,-1.15807 -1.34979,-1.15807 z m 8.70645,0.640271 c 0,0 -0.11423,0.438789 -0.23565,0.726571 l -0.6072,1.524972 h 1.69241 l -0.60668,-1.524972 c -0.12142,-0.287782 -0.24288,-0.726571 -0.24288,-0.726571 z m -13.21263,6.899321 c 1.38554,0 2.49959,1.050462 2.49959,2.510958 0,1.460496 -1.11405,2.510958 -2.49959,2.510958 -1.39269,0 -2.50683,-1.050462 -2.50683,-2.510958 0,-1.460496 1.11414,-2.510958 2.50683,-2.510958 z m 11.59102,0 c 1.38555,0 2.50011,1.050462 2.50011,2.510958 0,1.460496 -1.11456,2.510958 -2.50011,2.510958 -1.39269,0 -2.50682,-1.050462 -2.50682,-2.510958 0,-1.460496 1.11413,-2.510958 2.50682,-2.510958 z m -17.8046,0.06511 h 3.02101 v 0.668694 h -2.26395 v 1.964221 h 2.05673 v 0.676444 h -2.05673 v 1.582849 h -0.75706 z m 9.66298,0 h 0.75706 v 4.222999 h 2.24276 v 0.669209 h -2.99982 z m 3.91397,0 h 0.74983 v 4.892208 h -0.74983 z m -7.36337,0.618567 c -1.01417,0 -1.73581,0.784068 -1.73581,1.827279 0,1.043212 0.72164,1.827279 1.73581,1.827279 1.01416,0 1.72806,-0.784067 1.72806,-1.827279 0,-1.043211 -0.7139,-1.827279 -1.72806,-1.827279 z m 11.59102,0 c -1.01416,0 -1.73529,0.784068 -1.73529,1.827279 0,1.043212 0.72113,1.827279 1.73529,1.827279 1.01416,0 1.72858,-0.784067 1.72858,-1.827279 0,-1.043211 -0.71442,-1.827279 -1.72858,-1.827279 z" />
  </g>
</svg>
