<?xml version="1.0" encoding="UTF-8" standalone="no"?>
<!-- Created with Inkscape (http://www.inkscape.org/) -->

<svg
   width="27.581924mm"
   height="30.23381mm"
   viewBox="0 0 27.581924 30.23381"
   version="1.1"
   id="svg1"
   xmlns="http://www.w3.org/2000/svg"
   xmlns:svg="http://www.w3.org/2000/svg">
  <defs
     id="defs1" />
  <g
     id="layer1"
     transform="translate(-91.545833,-121.44375)">
    <rect
       style="fill:#ffffff;fill-opacity:1;stroke:none;stroke-width:1.13585;stroke-linecap:square;stroke-opacity:1"
       id="rect38"
       width="3.1749995"
       height="27.011332"
       x="115.95276"
       y="122.96136"
       ry="0.23638055" />
    <path
       id="rect39"
       style="fill:#4b4b4e;fill-opacity:1;stroke:none;stroke-width:3.43845;stroke-linecap:square;stroke-opacity:1"
       d="m 91.810416,121.44375 c -0.146579,0 -0.264583,0.118 -0.264583,0.26458 v 29.70465 c 0,0.14657 0.118004,0.26458 0.264583,0.26458 h 25.465114 c 0.14658,0 0.26458,-0.11801 0.26458,-0.26458 v -29.70465 c 0,-0.14658 -0.118,-0.26458 -0.26458,-0.26458 z m 8.440314,6.88174 c 1.38554,0 2.49959,1.05047 2.49959,2.51096 0,1.4605 -1.11405,2.51044 -2.49959,2.51044 -1.39269,0 -2.506826,-1.04994 -2.506826,-2.51044 0,-1.46049 1.114136,-2.51096 2.506826,-2.51096 z m 12.88396,0.0139 h 0.0858 l 2.12855,4.94285 h -0.78548 l -0.27854,-0.6904 h -2.22157 l -0.27853,0.6904 h -0.72812 z m -19.397261,0.0506 h 1.221116 c 1.342694,0 2.08566,0.72671 2.08566,1.86345 0,1.12955 -0.75011,1.86346 -2.08566,1.86346 H 94.49449 v 1.1653 h -0.757061 z m 9.962701,0 h 1.21439 c 1.3427,0 2.09239,0.70493 2.09239,1.82728 0,0.75543 -0.33537,1.27332 -0.971,1.55391 l 1.02835,1.51102 H 106.193 l -0.87126,-1.28778 c -0.1357,0.0144 -0.27152,0.0289 -0.40722,0.0289 h -0.45733 v 1.25884 h -0.75706 z m 3.89278,0 h 3.63492 v 0.66921 h -1.44228 v 4.223 h -0.75035 v -4.223 h -1.44229 z m -7.34218,0.61857 c -1.014164,0 -1.735296,0.78458 -1.735296,1.82779 0,1.04321 0.721132,1.82728 1.735296,1.82728 1.01416,0 1.72857,-0.78407 1.72857,-1.82728 0,-1.04321 -0.71441,-1.82779 -1.72857,-1.82779 z m -5.75624,0.0506 v 2.38849 h 0.435633 c 0.957025,0 1.342552,-0.45321 1.342552,-1.19425 0,-0.74104 -0.392668,-1.19424 -1.342552,-1.19424 z m 9.9627,0 v 2.30942 h 0.42891 c 0.96417,0 1.34979,-0.4247 1.34979,-1.15135 0,-0.73385 -0.3999,-1.15807 -1.34979,-1.15807 z m 8.70644,0.64027 c 0,0 -0.11423,0.43879 -0.23564,0.72657 l -0.6072,1.52497 h 1.69241 l -0.60669,-1.52497 c -0.12141,-0.28778 -0.24288,-0.72657 -0.24288,-0.72657 z m -13.212625,6.89932 c 1.385545,0 2.499585,1.05046 2.499585,2.51096 0,1.4605 -1.11404,2.51096 -2.499585,2.51096 -1.392688,0 -2.506824,-1.05046 -2.506824,-2.51096 0,-1.4605 1.114136,-2.51096 2.506824,-2.51096 z m 11.591025,0 c 1.38554,0 2.5001,1.05046 2.5001,2.51096 0,1.4605 -1.11456,2.51096 -2.5001,2.51096 -1.39269,0 -2.50683,-1.05046 -2.50683,-2.51096 0,-1.4605 1.11414,-2.51096 2.50683,-2.51096 z m -17.804601,0.0651 h 3.021005 v 0.6687 H 94.49449 v 1.96422 h 2.056722 v 0.67644 H 94.49449 v 1.58285 h -0.757061 z m 9.662981,0 h 0.75706 v 4.223 h 2.24275 v 0.66921 h -2.99981 z m 3.91397,0 h 0.74982 v 4.89221 h -0.74982 z m -7.363375,0.61857 c -1.014164,0 -1.735812,0.78407 -1.735812,1.82728 0,1.04321 0.721648,1.82728 1.735812,1.82728 1.014165,0 1.728055,-0.78407 1.728055,-1.82728 0,-1.04321 -0.71389,-1.82728 -1.728055,-1.82728 z m 11.591025,0 c -1.01416,0 -1.7353,0.78407 -1.7353,1.82728 0,1.04321 0.72114,1.82728 1.7353,1.82728 1.01416,0 1.72858,-0.78407 1.72858,-1.82728 0,-1.04321 -0.71442,-1.82728 -1.72858,-1.82728 z" />
  </g>
</svg>
