<?xml version="1.0" encoding="UTF-8" standalone="no"?>
<svg
   width="2179.2188"
   height="2201.2803"
   viewBox="0 0 168.023 169.72399"
   version="1.1"
   id="svg3"
   sodipodi:docname="linux-tux-3.svg"
   inkscape:version="1.3 (0e150ed, 2023-07-21)"
   xmlns:inkscape="http://www.inkscape.org/namespaces/inkscape"
   xmlns:sodipodi="http://sodipodi.sourceforge.net/DTD/sodipodi-0.dtd"
   xmlns="http://www.w3.org/2000/svg"
   xmlns:svg="http://www.w3.org/2000/svg">
  <defs
     id="defs3" />
  <sodipodi:namedview
     id="namedview3"
     pagecolor="#ffffff"
     bordercolor="#cccccc"
     borderopacity="1"
     inkscape:showpageshadow="0"
     inkscape:pageopacity="1"
     inkscape:pagecheckerboard="true"
     inkscape:deskcolor="#d1d1d1"
     inkscape:zoom="0.1808"
     inkscape:cx="1089.6018"
     inkscape:cy="1100.6637"
     inkscape:window-width="1280"
     inkscape:window-height="940"
     inkscape:window-x="0"
     inkscape:window-y="0"
     inkscape:window-maximized="1"
     inkscape:current-layer="g3" />
  <g
     fill-rule="evenodd"
     clip-rule="evenodd"
     id="g3"
     transform="translate(-12.366,-11.516)">
    <path
       d="m 180.389,113.324 c -7.82,36.426 -40.312,63.877 -79.02,63.877 -44.515,0 -80.821,-36.307 -80.821,-80.822 0,-44.514 36.306,-80.821 80.821,-80.821 38.459,0 70.785,27.101 78.869,63.181 -8.16,-38.324 -42.314,-67.223 -83.01,-67.223 -46.74,0 -84.862,38.122 -84.862,84.862 0,46.741 38.122,84.862 84.862,84.862 40.942,0 75.268,-29.248 83.161,-67.916 z"
       id="path2"
       style="fill:#f4f4f4;fill-opacity:1" />
    <path
       d="m 87.787,138.574 c 4.676,-0.482 5.293,-5.43 3.09,-7.592 -1.814,-1.779 -11.825,-9.211 -14.437,-12.133 -1.212,-1.355 -2.856,-2.021 -3.552,-3.545 -1.601,-3.506 -2.723,-8.51 -0.692,-12.102 0.368,-0.65 0.604,-0.359 0.323,0.994 -1.595,7.666 3.397,13.93 4.496,10.717 0.759,-2.219 0.056,-6.188 0.461,-9.34 0.718,-5.578 5.796,-16.29 8.026,-16.902 -3.439,-6.372 4.034,-11.359 3.943,-16.951 -0.061,-3.637 3.193,4.471 6.464,6.19 3.652,1.919 7.666,-3.618 13.365,-6.428 1.611,-0.795 3.68,-1.708 3.541,-2.386 -0.67,-3.27 -7.484,4.034 -13.572,4.28 -2.778,0.111 -3.809,-0.546 -4.882,-1.582 -3.244,-3.136 0.331,-0.519 5.153,-1.391 2.145,-0.388 2.865,-0.746 5.139,-1.665 2.275,-0.919 4.875,-2.28 7.449,-2.979 1.791,-0.487 1.643,-1.833 0.945,-2.238 -0.402,-0.233 -0.996,-0.21 -1.467,0.604 -1.105,1.91 -6.299,3.014 -7.918,3.509 -2.082,0.636 -4.385,1.231 -7.442,1.107 -4.646,-0.188 -3.563,-2.318 -6.887,-4.224 -0.975,-0.559 -0.711,-2.026 0.583,-3.321 0.678,-0.679 2.538,-1.062 3.46,-2.606 0.129,-0.217 1.317,-1.459 2.249,-2.103 0.322,-0.223 0.35,-5.896 -2.561,-6.013 -2.473,-0.1 -3.176,1.817 -3.072,3.728 0.103,1.909 1.115,3.484 1.789,3.477 1.298,-0.014 0.083,1.42 -0.628,1.651 -1.08,0.352 -2.56,-4.251 -2.39,-6.461 0.178,-2.302 1.376,-6.378 4.29,-6.299 2.624,0.071 4.525,3.36 4.429,9.034 -0.018,0.962 4.254,-0.459 5.68,1.047 1.018,1.077 -3.492,-10.052 6.553,-10.818 2.646,0.506 5.188,1.387 6.244,7.471 -0.391,0.633 0.658,4.877 -0.975,5.381 -1.994,0.615 -3.225,-0.089 -2.072,-1.987 0.789,-1.907 0.018,-6.757 -4.016,-6.466 -4.035,0.291 -3.5,7.45 -2.395,7.592 1.107,0.141 3.893,2.118 5.838,2.497 6.381,1.242 1.693,4.901 2.521,9.33 0.936,5.002 4.23,3.681 7.191,16.927 0.619,0.807 3.07,1.57 5.461,11.747 2.15,9.154 -0.895,15.812 4.275,15.266 1.164,-0.123 2.865,-0.449 3.605,-3.043 1.936,-6.779 -0.969,-14.86 -3.9,-20.312 -1.707,-3.179 -3.316,-5.343 -4.164,-6.087 3.359,1.986 7.654,8.328 8.645,13.038 1.303,6.186 2.23,8.803 0.262,15.344 1.137,0.568 3.965,1.77 3.965,3.119 -2.945,-2.422 -11.965,-2.852 -12.197,2.939 -1.539,0.031 -2.701,0.156 -3.691,1.332 -3.627,4.303 -0.26,12.945 -0.627,17.578 -0.324,4.078 -1.455,8.119 -2.094,12.215 -2.158,-0.082 -1.947,-1.662 -1.254,-3.879 0.611,-1.955 1.596,-4.406 1.66,-6.756 0.059,-2.127 -0.174,-3.455 -0.709,-3.785 -0.537,-0.33 -1.377,0.338 -2.537,2.207 -2.477,3.988 -7.842,5.742 -12.852,6.371 -5.01,0.627 -9.667,0.129 -12.133,-2.633 -0.843,-0.945 -2.241,0.258 -2.407,0.508 -0.223,0.336 0.816,0.988 1.599,2.426 1.144,2.098 2.231,5.281 -0.478,6.734 0.035,-7.386 -2.303,-7.819 -4.693,-12.333 z m -1.79,-0.195 c 1.795,2.826 8.121,14.725 -2.968,16.27 -3.709,0.516 -9.68,-2.158 -15.466,-3.574 -5.198,-1.271 -10.477,-2.023 -13.432,-2.855 -1.779,-0.498 -2.522,-1.137 -2.677,-1.883 -0.41,-1.975 2.16,-4.744 2.29,-7.082 0.13,-2.338 -0.853,-3.555 -1.658,-5.461 -0.807,-1.914 -1.016,-3.346 -0.371,-4.166 0.502,-0.637 1.522,-0.904 3.182,-0.742 2.104,0.209 4.644,-0.223 6.009,-1.055 2.299,-1.404 3.38,-4.277 2.346,-7.74 0,3.389 -1.111,4.672 -3.896,6.221 -2.625,1.461 -6.677,0.279 -8.539,1.896 -2.241,1.943 0.8,6.965 0.551,10.648 -0.191,2.832 -3.146,6.021 -1.828,8.861 1.326,2.857 7.508,3.17 13.953,4.516 9.162,1.918 14.503,5.254 18.736,5.41 6.175,0.23 7.121,-6.109 16.817,-6.195 2.828,-0.148 5.594,-0.236 8.357,-0.271 3.131,-0.039 6.258,-0.014 9.469,0.064 6.453,0.156 4.234,3.523 8.42,5.674 3.533,1.814 9.883,1.098 11.402,-0.352 2.057,-1.961 7.576,-6.678 11.805,-8.809 5.271,-2.656 17.65,-7.229 8.664,-12.805 -2.094,-1.301 -7.047,-2.674 -7.463,-12.18 -1.875,1.666 -1.658,10.523 3.574,12.281 5.844,1.963 9.496,5.25 -1.369,8.967 -7.195,2.459 -8.416,3.217 -14.111,7.957 -5.764,4.797 -14.314,2.893 -12.822,-7.207 0.779,-5.262 1.227,-9.609 -0.082,-14.184 -0.641,-2.232 -0.959,-5.1 -0.521,-7.109 0.85,-3.908 2.965,-5.084 5.039,-1.332 1.301,2.355 1.758,5.107 6.418,5.332 7.32,0.35 8.77,-7.074 11.109,-7.412 1.561,-0.225 3.121,-4.643 1.932,-11.787 -1.273,-7.648 -5.773,-19.727 -11.545,-25.852 -4.797,-5.09 -7.82,-9.554 -9.723,-15.924 -1.598,-5.352 -2.488,-10.561 -2.16,-15.541 0.426,-6.453 -3.152,-15.433 -8.85,-19.657 -3.566,-2.645 -9.158,-4.062 -14.219,-4.006 -2.84,0.031 -5.511,0.445 -7.565,1.56 -8.449,4.587 -9.629,11.139 -9.502,18.617 0.119,7.024 0.358,15.04 1.156,22.666 -0.945,3.501 -5.864,10.139 -9.014,14.178 -4.235,4.184 -6.374,12.269 -9.114,19.333 -1.462,3.766 -3.924,5.467 -4.131,10.309 -0.058,1.355 -0.011,4.857 1.283,3.855 4.952,-3.831 11.151,5.828 20.514,20.566 z M 111.705,37.127 c -0.266,0.798 -1.365,1.463 -0.668,2.022 0.697,0.559 1.098,-0.781 2.502,-1.283 0.363,-0.13 2.051,0.054 2.361,-0.748 0.135,-0.35 -0.871,-0.749 -1.469,-1.322 -0.6,-0.572 -1.188,-1.081 -1.75,-1.045 -1.454,0.093 -0.74,1.669 -0.976,2.376 z m 8.607,29.128 c 0.523,-0.549 0.793,0.948 2.199,1.835 1.115,0.704 2.199,0.182 2.48,1.607 0.201,1.022 -0.436,2.13 -1.293,1.986 -1.489,-0.251 -4.93,-3.804 -3.386,-5.428 z m -23.23,-8.989 c -2.317,-0.173 -2.476,1.502 -1.709,1.474 0.783,-0.028 0.302,-1.325 1.709,-1.474 z m -3.974,-4.278 c 0.274,-0.06 0.663,0.407 0.542,1.061 -0.168,0.908 -0.095,1.477 0.534,1.479 0.104,0 0.216,-0.02 0.255,-0.255 0.302,-1.809 -0.638,-3.137 -1.022,-3.235 -0.885,-0.226 -0.778,1.05 -0.309,0.95 z m 16.863,-0.765 c 0.588,0.175 1.154,1.192 1.277,2.291 0.012,0.103 0.768,-0.158 0.773,-0.398 0.049,-1.769 -1.463,-2.601 -1.857,-2.565 -0.91,0.082 -0.652,0.534 -0.193,0.672 z m -8.645,5.259 c 2.107,-0.977 2.844,0.536 2.117,0.779 -0.742,0.249 -0.748,-1.135 -2.117,-0.779 z M 75.884,93.374 c -0.996,-0.121 0.29,-0.869 0.835,-1.81 0.599,-1.036 0.483,-2.329 1.113,-2.138 0.629,0.191 0.279,0.915 -0.152,2.102 -0.368,1.011 -1.429,1.89 -1.796,1.846 z"
       id="path3"
       style="fill:#f4f4f4;fill-opacity:1" />
  </g>
</svg>
