<?xml version="1.0" encoding="UTF-8" standalone="no"?>
<svg
   width="250"
   height="250"
   viewBox="0 0 105.2 105.2"
   version="1.1"
   id="svg2"
   xmlns="http://www.w3.org/2000/svg"
   xmlns:svg="http://www.w3.org/2000/svg">
  <defs
     id="defs2" />
  <path
     fill="#f0db4f"
     d="M 0,0 H 105.2 V 105.2 H 0 Z"
     id="path1"
     style="stroke-width:0.1" />
  <path
     d="m 96.59,80.11 c -0.77,-4.8 -3.9,-8.83 -13.17,-12.59 -3.22,-1.48 -6.81,-2.5399 -7.88,-4.98 -0.38,-1.42 -0.43,-2.22 -0.19,-3.08 0.69,-2.79 4.02,-3.66 6.66,-2.86 1.7,0.57 3.31,1.8801 4.28,3.97 4.54,-2.9399 4.53,-2.92 7.7,-4.9399 -1.16,-1.8 -1.78,-2.6301 -2.54,-3.4 -2.73,-3.05 -6.45,-4.62 -12.4,-4.5 -1.03,0.13 -2.0699,0.2699 -3.1,0.4 -2.9699,0.75 -5.8,2.31 -7.46,4.4 -4.98,5.65 -3.56,15.5399 2.5,19.61 5.97,4.48 14.74,5.5 15.86,9.69 1.09,5.13 -3.7699,6.7899 -8.6,6.2 -3.56,-0.74 -5.5399,-2.55 -7.68,-5.84 -3.9399,2.28 -3.9399,2.28 -7.9899,4.61 0.96,2.1 1.9699,3.05 3.58,4.87 7.62,7.73 26.6899,7.35 30.11,-4.35 C 96.41,86.92 97.3301,84.24 96.59,80.11 Z M 57.19,48.35 h -9.84 c 0,8.5 -0.0399,16.94 -0.0399,25.44 0,5.41 0.28,10.37 -0.6,11.89 -1.44,2.9899 -5.17,2.62 -6.87,2.0399 -1.73,-0.85 -2.61,-2.06 -3.63,-3.7699 -0.28,-0.49 -0.49,-0.87 -0.5601,-0.9 -2.6699,1.63 -5.33,3.2699 -8,4.9 1.3301,2.73 3.29,5.1 5.8,6.6399 3.75,2.25 8.79,2.94 14.0601,1.73 3.43,-1 6.3899,-3.0699 7.9399,-6.2199 2.24,-4.13 1.76,-9.13 1.74,-14.66 0.05,-9.02 0,-18.04 0,-27.09 z"
     fill="#323330"
     id="path2"
     style="stroke-width:0.1" />
</svg>
